Coordinates
version=1
nRows=19
nColumns=36
inDegrees=yes

Units are S.I. units (second, meters, Newtons, ...)
If the header above contains a line with 'inDegrees', this indicates whether rotational values are in degrees (yes) or radians (no).

endheader
time	pelvis_tilt	pelvis_list	pelvis_rotation	pelvis_tx	pelvis_ty	pelvis_tz	hip_flexion_r	hip_adduction_r	hip_rotation_r	knee_angle_r	knee_angle_r_beta	ankle_angle_r	subtalar_angle_r	mtp_angle_r	hip_flexion_l	hip_adduction_l	hip_rotation_l	knee_angle_l	knee_angle_l_beta	ankle_angle_l	subtalar_angle_l	mtp_angle_l	lumbar_extension	lumbar_bending	lumbar_rotation	arm_flex_r	arm_add_r	arm_rot_r	elbow_flex_r	pro_sup_r	arm_flex_l	arm_add_l	arm_rot_l	elbow_flex_l	pro_sup_l
      2.96000000	    -30.26489599	     -0.78332034	     -4.60441959	     -0.29437819	      0.75547718	     -0.62173960	     71.74941223	     -7.89033026	     -3.20135076	     67.38882470	      1.17615687	     25.72458053	    -11.16889824	     -7.49999987	     73.60173081	    -19.08962132	     -4.40269450	     68.48322549	      1.19525777	     24.50830811	     -4.94225729	     -7.49999987	     -3.32908171	      1.64942680	      0.27723868	     38.14649909	    -22.25454444	     32.88419313	    133.74672763	    105.91314469	     39.97766247	    -24.61603190	     38.19388564	    129.88593927	    106.26515336
      2.97000000	    -30.57587009	     -0.79153016	     -4.44488160	     -0.29671446	      0.74885919	     -0.62192028	     73.05820269	     -8.17981814	     -3.31823515	     68.87922878	      1.20216933	     26.08357969	    -11.35614007	     -7.49999987	     75.00705100	    -19.09335418	     -4.05957970	     69.90306857	      1.22003870	     24.85196766	     -4.98443344	     -7.49999987	     -3.75931977	      1.64505862	      0.09986551	     39.35047883	    -22.20025586	     32.98251989	    133.76213969	    105.92538842	     41.10490533	    -24.67215199	     38.37210640	    129.72898713	    106.27128461
      2.98000000	    -31.14906732	     -1.01845400	     -4.09844759	     -0.29877713	      0.74202049	     -0.62251436	     74.44478566	     -8.60129921	     -3.78615098	     70.19415990	      1.22511921	     26.75561991	    -11.46914950	     -7.49999987	     76.73698756	    -18.89187505	     -3.31219224	     71.21499758	      1.24293618	     25.49092847	     -4.77443637	     -7.49999987	     -3.81020813	      1.94922724	     -0.28094229	     40.57728879	    -22.29560449	     33.67719159	    133.70987092	    105.96856698	     42.22239580	    -24.85647910	     39.28748090	    129.57637482	    106.36628065
      2.99000000	    -31.36223202	     -1.03105490	     -3.99321165	     -0.30084054	      0.73569865	     -0.62270558	     75.58421397	     -8.85274852	     -3.75097151	     71.59195437	      1.24951532	     27.04689049	    -11.52697157	     -7.49999987	     77.96632999	    -18.91843497	     -2.99402297	     72.53075206	      1.26590043	     25.75462630	     -4.76332065	     -7.49999987	     -4.31734302	      1.96197962	     -0.37843804	     41.76207138	    -22.20160186	     33.62349956	    133.70367402	    105.96702027	     43.26919326	    -24.81454623	     39.25479968	    129.45748817	    106.37159235
      3.00000000	    -31.64517088	     -1.02096777	     -3.88372284	     -0.30318464	      0.72944372	     -0.62279887	     76.80935324	     -9.02446490	     -3.46265509	     72.98098738	      1.27375852	     27.31256081	    -11.52812130	     -7.49999987	     79.22837421	    -18.87507930	     -2.61916939	     73.73576752	      1.28693192	     25.99084669	     -4.77188091	     -7.49999987	     -4.75449656	      1.94772119	     -0.45972251	     42.99746312	    -22.00767037	     33.57745573	    133.68131091	    105.96563027	     44.39232661	    -24.64306810	     39.17793706	    129.37802054	    106.36726781
      3.01000000	    -32.37423184	     -0.98478471	     -3.68403548	     -0.30543353	      0.72252740	     -0.62307703	     78.49451580	     -9.41887905	     -3.39631060	     74.39465115	      1.29843161	     28.12277869	    -10.78081417	     -7.49999987	     80.97010464	    -18.72597761	     -2.24918639	     74.93425266	      1.30784943	     26.56418231	     -4.42297581	     -7.49999987	     -4.49146804	      1.95999167	     -0.77676709	     44.14852602	    -22.09363692	     34.38702271	    133.47807881	    106.01426073	     45.28754839	    -24.86564614	     39.77131223	    129.27527778	    106.42250060
      3.02000000	    -32.70700897	     -0.99866999	     -3.68625434	     -0.30742473	      0.71639011	     -0.62304724	     79.69320758	     -9.54025784	     -3.28812956	     75.65511570	      1.32043086	     28.97457612	     -9.98932173	     -7.49999987	     82.23726555	    -18.82398707	     -1.91973513	     76.12455796	      1.32862418	     27.07071634	     -4.07646016	     -7.49999987	     -4.78759738	      2.00901507	     -0.85230560	     45.40844592	    -21.95132070	     34.77325106	    133.31021652	    106.04896620	     46.15526214	    -24.79254517	     39.74951903	    129.24184166	    106.42561597
      3.03000000	    -32.97366743	     -0.95619968	     -3.73565844	     -0.30917362	      0.71043422	     -0.62292983	     80.82708278	     -9.65722395	     -3.19356877	     76.86742226	      1.34158961	     29.40281016	     -9.75185489	     -7.49999987	     83.38671468	    -18.98292294	     -1.72633896	     77.29429141	      1.34903988	     27.43280846	     -4.00515331	     -7.49999987	     -5.13967121	      1.93401942	     -0.83086264	     46.45913428	    -21.89134553	     34.88310052	    133.25221094	    106.07018542	     47.01713230	    -24.64020253	     39.68041991	    129.16652111	    106.40160822
      3.04000000	    -33.15323929	     -0.91644666	     -3.79467890	     -0.31092116	      0.70470830	     -0.62270257	     81.85610661	     -9.72847664	     -3.07016250	     78.02895629	      1.36186220	     29.58575009	     -9.80600329	     -7.49999987	     84.40526390	    -19.13139247	     -1.49775839	     78.38740206	      1.36811826	     27.60908461	     -4.06844851	     -7.49999987	     -5.60602348	      1.84883594	     -0.74079310	     47.44947522	    -21.65412019	     34.71206802	    133.22259505	    106.06770574	     47.94679797	    -24.40477638	     39.42246947	    129.15168450	    106.38090303
      3.05000000	    -33.39961806	     -0.89608501	     -3.85829749	     -0.31270062	      0.69887496	     -0.62240052	     82.94151494	     -9.77887168	     -2.97230973	     79.17626851	      1.38188657	     29.80108841	     -9.83184314	     -7.49999987	     85.52207424	    -19.29201491	     -1.22731215	     79.50371620	      1.38760162	     27.82292456	     -4.10199570	     -7.49999987	     -5.95039813	      1.78566853	     -0.63959576	     48.38409752	    -21.49371722	     34.57648019	    133.17886248	    106.07410335	     48.83925069	    -24.30140367	     39.21570227	    129.11375108	    106.36794964
      3.06000000	    -33.99356993	     -0.93058344	     -3.92329409	     -0.31449934	      0.69261377	     -0.62222050	     84.31619238	     -9.84219478	     -2.95725810	     80.24193744	      1.40048601	     30.34539625	     -9.36576484	     -7.49999987	     87.04272709	    -19.44083972	     -0.84079903	     80.61749855	      1.40704078	     28.31152440	     -3.70539462	     -7.49999987	     -5.79745314	      1.84300921	     -0.54436078	     49.23049008	    -21.49670619	     34.79368151	    133.07867029	    106.18505347	     49.59040184	    -24.29419441	     39.43351840	    128.99970524	    106.43205701
      3.07000000	    -34.16888229	     -0.83637568	     -4.00102770	     -0.31613524	      0.68709930	     -0.62217558	     85.32317206	    -10.01264698	     -2.88830615	     81.32522855	      1.41939300	     30.50708489	     -9.36108436	     -7.49999987	     88.00190759	    -19.56072751	     -0.65864953	     81.66740012	      1.42536502	     28.46787303	     -3.72746515	     -7.49999987	     -6.21082380	      1.71912283	     -0.45589771	     50.17805649	    -21.33697878	     34.60936691	    133.04003932	    106.19177710	     50.46392872	    -24.12548257	     39.19365015	    128.97449644	    106.42438674
      3.08000000	    -34.38453432	     -0.76881952	     -4.06949056	     -0.31763597	      0.68157721	     -0.62208189	     86.34527400	    -10.15257233	     -2.77245819	     82.41514690	      1.43841567	     30.67841893	     -9.28684641	     -7.49999987	     89.00928390	    -19.69261853	     -0.45369636	     82.71776733	      1.44369739	     28.66122272	     -3.73957694	     -7.49999987	     -6.53602428	      1.61638095	     -0.39831193	     51.05223589	    -21.26410308	     34.52464116	    132.98261877	    106.20379600	     51.29455858	    -23.95748599	     38.99126333	    128.96516526	    106.42158547
      3.09000000	    -34.75143297	     -0.77894468	     -4.18621949	     -0.31910189	      0.67594813	     -0.62202553	     87.41831449	    -10.23850198	     -2.70884158	     83.40982065	      1.45577600	     31.86195304	     -7.66850804	     -7.49999987	     90.18964987	    -19.88740237	     -0.13013007	     83.75753006	      1.46184467	     29.48602598	     -2.89277197	     -7.49999987	     -6.63599976	      1.65068194	     -0.30824710	     52.00277945	    -21.36634736	     34.97964637	    132.87438308	    106.48146280	     51.99039698	    -23.85627533	     38.90300487	    128.92240119	    106.61692977
      3.10000000	    -34.85696339	     -0.69413326	     -4.29157153	     -0.32050845	      0.67096118	     -0.62192543	     88.25667825	    -10.31994264	     -2.62739498	     84.34439146	      1.47208734	     31.97516815	     -7.72087248	     -7.49999987	     91.00348700	    -20.01824575	      0.07263711	     84.70760089	      1.47842654	     29.61713541	     -2.97139407	     -7.49999987	     -7.10025853	      1.51333457	     -0.19759066	     52.82438993	    -21.20441825	     34.83817816	    132.82550912	    106.48468251	     52.80922800	    -23.67855402	     38.67137223	    128.91769145	    106.61220877
      3.11000000	    -34.96218097	     -0.59374722	     -4.37413700	     -0.32185160	      0.66612078	     -0.62181268	     89.08409835	    -10.42538593	     -2.54668694	     85.24641122	      1.48783055	     32.11523103	     -7.75274704	     -7.49999987	     91.79490835	    -20.13660810	      0.23210922	     85.61910353	      1.49433526	     29.76743641	     -3.02872331	     -7.49999987	     -7.53308872	      1.37257370	     -0.08955109	     53.62844910	    -21.15367482	     34.71676679	    132.77278877	    106.49385406	     53.59609848	    -23.62646514	     38.50903932	    128.88672701	    106.60887828
      3.12000000	    -35.09882836	     -0.51011198	     -4.41816451	     -0.32308458	      0.66134095	     -0.62153502	     89.92173570	    -10.51661841	     -2.42299194	     86.16418928	      1.50384880	     32.30188840	     -7.75378174	     -7.49999987	     92.60621021	    -20.26194940	      0.37378332	     86.49076811	      1.50954868	     29.94064689	     -3.04723969	     -7.49999987	     -7.90617262	      1.22508836	     -0.02680787	     54.36619742	    -21.09246126	     34.66221522	    132.71949177	    106.52050558	     54.41621522	    -23.58483558	     38.43507252	    128.85534603	    106.61496394
      3.13000000	    -35.25957596	     -0.42008106	     -4.48332402	     -0.32431680	      0.65664781	     -0.62119074	     90.76779905	    -10.57969181	     -2.31888826	     87.03374553	      1.51902542	     32.48272663	     -7.75576516	     -7.49999987	     93.42044733	    -20.40660263	      0.53090541	     87.31588055	      1.52394960	     30.09205488	     -3.04799163	     -7.49999987	     -8.24861631	      1.05303484	      0.01421707	     55.05688611	    -20.96878719	     34.61686144	    132.68330705	    106.54506105	     55.26738483	    -23.49612451	     38.31478622	    128.84433928	    106.62096933
      3.14000000	    -35.57614822	     -0.27138581	     -4.56152505	     -0.32551944	      0.65180288	     -0.62079258	     91.77139103	    -10.55532791	     -2.03078775	     87.88034908	      1.53380144	     32.98724677	     -7.27417283	     -7.49999987	     94.36565321	    -20.58765535	      0.61490005	     88.13135116	      1.53818225	     30.50306637	     -2.61351910	     -7.49999987	     -8.36681394	      0.82210671	      0.12087395	     55.73237166	    -21.08354852	     35.02869436	    132.72019048	    106.74233806	     56.19523996	    -23.56118904	     38.78447252	    128.81416003	    106.77046040
